HIERARCHY
ROOT pelvis
{
  OFFSET 0 100 0
  CHANNELS 6 Xposition Yposition Zposition Zrotation Xrotation Yrotation
  JOINT pelvis_right_femur
  {
    OFFSET -10.78128 -3.44521 -0.5502486
    CHANNELS 3 Zrotation Xrotation Yrotation
    JOINT right_femur_tibia
    {
      OFFSET -0.8047443 -44.0398 -0.1307829
      CHANNELS 3 Zrotation Xrotation Yrotation
      JOINT right_tibia_foot
      {
        OFFSET 3.006224 -47.83518 -5
        CHANNELS 3 Zrotation Xrotation Yrotation
        End Site
        {
          OFFSET 0 -5 15
        }
      }
    }
  }
  JOINT pelvis_left_femur
  {
    OFFSET 10.78128 -3.44521 -0.5502486
    CHANNELS 3 Zrotation Xrotation Yrotation
    JOINT left_femur_tibia
    {
      OFFSET 0.8047443 -44.0398 -0.1307829
      CHANNELS 3 Zrotation Xrotation Yrotation
      JOINT left_tibia_foot
      {
        OFFSET -4.370144 -48.10324 -4.275266
        CHANNELS 3 Zrotation Xrotation Yrotation
        End Site
        {
          OFFSET 0 -5 15
        }
      }
    }
  }
  JOINT pelvis_spine1
  {
    OFFSET 0 6.468898 -3.129235
    CHANNELS 3 Zrotation Xrotation Yrotation
    JOINT spine1
    {
      OFFSET 0 23.15396 4.99043
      CHANNELS 3 Zrotation Xrotation Yrotation
      JOINT spine2
      {
        OFFSET 0 20.79997 -5.064912
        CHANNELS 3 Zrotation Xrotation Yrotation
        JOINT neck
        {
          OFFSET 0 14.38658 9.616178
          CHANNELS 3 Zrotation Xrotation Yrotation
          End Site
          {
            OFFSET 0 20 0
          }
        }
      }
      JOINT right_manubrium
      {
        OFFSET -5.722621 16.35077 3.967754
        CHANNELS 3 Zrotation Xrotation Yrotation
        JOINT right_clavicle
        {
          OFFSET -13.16364 1.694482 -4.693211
          CHANNELS 3 Zrotation Xrotation Yrotation
          JOINT right_humerus
          {
            OFFSET -28.5034 -0.3100689 -2.792744
            CHANNELS 3 Zrotation Xrotation Yrotation
            JOINT right_radius
            {
              OFFSET -25.15693 0.02248979 -1.271978
              CHANNELS 3 Zrotation Xrotation Yrotation
              End Site
              {
                OFFSET -15 0 0
              }
            }
          }
        }
      }
      JOINT left_manubrium
      {
        OFFSET 5.722621 16.35077 3.967754
        CHANNELS 3 Zrotation Xrotation Yrotation
        JOINT left_clavicle
        {
          OFFSET 13.16364 1.694482 -4.693211
          CHANNELS 3 Zrotation Xrotation Yrotation
          JOINT left_humerus
          {
            OFFSET 29.39168 -1.063119 -2.237045
            CHANNELS 3 Zrotation Xrotation Yrotation
            JOINT left_radius
            {
              OFFSET 24.59957 -0.9528479 0.9047498
              CHANNELS 3 Zrotation Xrotation Yrotation
              End Site
              {
                OFFSET 15 -0 -0
              }
            }
          }
        }
      }
    }
  }
}
MOTION
Frames: 11
Frame Time: 0.0416666666667
0 103.5113 0 1.422074 -2.751501 0.06817095 2.530409 -11.61169 8.510826 -0 38.5534 -0 -6.61688 -17.4828 -4.367744 -6.786885 10.70481 -23.04172 -0 4.360381 -0 8.567822 -14.61131 25.97435 -2.560082 -3.992331 5.550894 3.041631 9.919577 -7.732298 1.525676 21.60828 5.979303 2.440636 -25.38134 9.583694 6.619678 -19.86386 11.06945 85.14055 34.7277 -19.98882 -0 0 17.07891 -4.184207 7.995421 1.998892 5.901494 -20.95594 -0.9200429 -96.35592 25.56457 25.2331 0 0 -13.60192 10.50896 18.13119 2.446691
0.332534 103.4695 1.497853 1.304705 -1.972898 0.08201395 2.828486 -13.88193 8.98819 -0 38.64478 -0 -5.914979 -17.39008 -4.343601 -6.886086 11.319 -23.50791 -0 4.305134 -0 7.717485 -16.01494 25.98678 -2.552993 -3.986043 5.531104 3.034087 9.873257 -7.713681 1.536336 21.63216 5.976801 2.438445 -25.3789 9.593443 6.617686 -19.82532 11.05026 85.13636 34.71027 -19.98803 -0 0 17.03919 -4.127515 7.944722 2.025686 5.888108 -20.90132 -0.9059298 -96.43551 25.79244 25.28133 0 0 -13.60973 10.27974 18.17943 2.733299
0.6108006 103.2735 3.191465 0.8424851 -1.55647 0.09862626 3.472582 -17.77356 7.847311 -0 35.9509 -0 -6.440894 -14.73049 -3.766393 -6.663882 12.05648 -22.99086 -0 5.186447 -0 5.98958 -18.43974 25.24242 -2.283677 -3.14558 5.193246 2.888534 9.874799 -7.663615 1.374327 21.40945 6.321065 2.856317 -25.3913 9.251277 6.283183 -19.20268 11.18447 85.55241 34.71605 -19.78514 -0 0 15.63841 -5.978302 8.181708 3.594931 6.010847 -20.77957 -1.019969 -95.17421 25.45859 23.71036 0 0 -14.569 9.494464 16.35213 3.55467
0.8638073 102.9993 5.023088 0.5086694 -0.6655841 0.1513744 4.08493 -21.1123 7.605849 -0 33.82316 -0 -6.16254 -13.35772 -3.399145 -6.573466 12.4432 -22.59368 -0 5.315096 -0 5.18473 -20.06358 24.7272 -2.136675 -2.811344 4.974187 2.902135 9.815913 -7.70179 1.34391 21.30278 6.500367 2.990783 -25.5364 9.260804 6.162026 -18.87679 11.21844 85.88303 34.77786 -19.9663 -0 0 14.89322 -6.465594 8.335804 4.084483 6.063537 -20.72992 -1.038728 -94.65508 25.5027 22.98011 0 0 -15.21116 9.193552 15.72854 3.945349
1.102871 102.6331 7.080978 0.09496343 0.7192619 0.2701741 4.968698 -25.28598 7.591708 -0 30.79377 -0 -5.595597 -11.87605 -2.977159 -6.488823 12.78158 -21.94598 -0 5.301026 -0 4.701391 -21.72573 24.09547 -1.9515 -2.475512 4.697739 2.976743 9.720216 -7.795097 1.329519 21.1643 6.712449 3.104958 -25.79026 9.364902 6.040517 -18.50808 11.24793 86.352 34.87111 -20.36324 -0 0 14.0115 -6.766444 8.528833 4.479369 6.117242 -20.6993 -1.046521 -94.09772 25.64132 22.17278 0 0 -16.09119 8.914881 15.13433 4.369606
1.337259 102.1609 9.443845 -0.3087125 2.072078 0.4753801 5.841038 -29.01571 7.551518 -0 27.49523 -0 -5.152837 -10.31421 -2.546884 -6.39342 13.05871 -21.12921 -0 5.415119 -0 4.375953 -23.00252 23.33423 -1.791092 -2.211103 4.467296 3.064419 9.65162 -7.904974 1.311396 21.01879 6.891999 3.190256 -26.01276 9.458267 5.930505 -18.21865 11.28428 86.78942 34.93546 -20.77253 -0 0 13.27161 -6.983221 8.712131 4.770338 6.164862 -20.72022 -1.069691 -93.57117 25.67209 21.45958 0 0 -16.94028 8.769475 14.59783 4.627452
1.571817 101.5943 12.21622 -0.742967 3.437944 0.7863227 6.750201 -32.4502 7.494512 -0 23.93928 -0 -4.851299 -8.57296 -2.097642 -6.267243 13.37739 -20.15647 -0 5.864219 -0 3.974244 -23.96003 22.31645 -1.637443 -1.965923 4.253146 3.160149 9.601542 -8.031986 1.282642 20.85173 7.062987 3.269282 -26.20765 9.528894 5.809637 -17.95782 11.33274 87.23389 34.97109 -21.20175 -0 0 12.56593 -7.218481 8.905483 5.052202 6.214632 -20.78272 -1.114796 -92.98976 25.60182 20.72321 0 0 -17.85641 8.686863 14.00777 4.800441
1.807968 100.9489 15.49245 -1.195075 4.578486 1.20626 7.579163 -35.12384 7.287196 -0 20.48841 -0 -4.855547 -6.6813 -1.651255 -6.080676 13.76583 -19.06495 -0 6.946789 -0 3.274178 -24.42254 20.94998 -1.502246 -1.7538 4.065741 3.256234 9.56702 -8.163423 1.247894 20.6781 7.215825 3.337429 -26.36596 9.577641 5.686759 -17.73588 11.38687 87.65062 34.98169 -21.61431 -0 0 11.93348 -7.450833 9.092427 5.309461 6.26392 -20.87297 -1.174125 -92.39735 25.45369 20.00851 0 0 -18.7779 8.662366 13.41044 4.888853
2.046011 100.2718 19.35637 -1.668165 5.355447 1.720598 8.292795 -36.75342 6.908193 -0 17.47682 -0 -5.228872 -4.769937 -1.243349 -5.806216 14.21395 -17.88476 -0 9.026289 -0 2.167206 -24.18942 19.1869 -1.385239 -1.572032 3.903357 3.346954 9.54248 -8.292741 1.209779 20.50638 7.349033 3.395601 -26.48507 9.604542 5.564354 -17.54616 11.44224 88.03311 34.96839 -22.00016 -0 0 11.37335 -7.680686 9.267453 5.54706 6.310976 -20.97888 -1.243488 -91.81575 25.26735 19.33013 0 0 -19.68137 8.657366 12.82387 4.939772
2.287247 99.64769 23.85759 -2.145682 5.610461 2.282456 8.856738 -37.01252 6.358198 -0 15.2898 -0 -6.002025 -3.061875 -0.9206384 -5.42357 14.61079 -16.64734 -0 12.52194 -0 0.664154 -23.02261 17.0798 -1.290904 -1.424721 3.773328 3.420279 9.528437 -8.407557 1.171274 20.35308 7.453992 3.443299 -26.55221 9.603144 5.450959 -17.39163 11.49333 88.35789 34.92982 -22.32968 -0 0 10.91297 -7.91279 9.420951 5.763043 6.352341 -21.08661 -1.317792 -91.29143 25.07982 18.73335 0 0 -20.4895 8.636371 12.28979 4.992756
2.536479 99.21202 28.98973 -2.597885 5.269156 2.811122 9.280446 -35.68285 5.731299 -0 14.25415 -0 -7.111239 -1.867556 -0.7368066 -4.932045 14.70092 -15.38985 -0 17.84751 -0 -1.073903 -20.7357 14.80436 -1.224318 -1.311471 3.685804 3.457121 9.533376 -8.493098 1.132306 20.23621 7.519723 3.48367 -26.53867 9.552983 5.35423 -17.27384 11.53668 88.59849 34.85653 -22.56189 -0 0 10.58315 -8.191576 9.549622 5.972699 6.385954 -21.18567 -1.397316 -90.86332 24.91153 18.25591 0 0 -21.10577 8.555594 11.83727 5.09085
